<svg width="56" height="56" viewBox="0 0 56 56" fill="none" xmlns="http://www.w3.org/2000/svg">
<path fill-rule="evenodd" clip-rule="evenodd" d="M28.1243 27.9323C28.1243 23.6519 31.5942 20.182 35.8746 20.182C40.1551 20.182 43.625 23.6519 43.625 27.9323C43.625 32.2127 40.1551 35.6827 35.8746 35.6827C31.5942 35.6827 28.1243 32.2127 28.1243 27.9323Z" fill="#1ABCFE"/>
<path fill-rule="evenodd" clip-rule="evenodd" d="M12.6235 43.4331C12.6235 39.1527 16.0935 35.6827 20.3739 35.6827H28.1243V43.4331C28.1243 47.7135 24.6543 51.1835 20.3739 51.1835C16.0935 51.1835 12.6235 47.7135 12.6235 43.4331Z" fill="#0ACF83"/>
<path fill-rule="evenodd" clip-rule="evenodd" d="M28.1243 4.68121V20.182H35.8746C40.1551 20.182 43.625 16.712 43.625 12.4316C43.625 8.15117 40.1551 4.68121 35.8746 4.68121H28.1243Z" fill="#FF7262"/>
<path fill-rule="evenodd" clip-rule="evenodd" d="M12.6235 12.4316C12.6235 16.712 16.0935 20.182 20.3739 20.182H28.1243V4.68124H20.3739C16.0935 4.68124 12.6235 8.1512 12.6235 12.4316Z" fill="#F24E1E"/>
<path fill-rule="evenodd" clip-rule="evenodd" d="M12.6235 27.9323C12.6235 32.2127 16.0935 35.6827 20.3739 35.6827H28.1243V20.182H20.3739C16.0935 20.182 12.6235 23.6519 12.6235 27.9323Z" fill="#A259FF"/>
</svg>
