<svg width="199" height="200" viewBox="0 0 199 200" fill="none" xmlns="http://www.w3.org/2000/svg">
<g filter="url(#filter0_d_101_499)">
<rect x="67" y="23" width="64.655" height="64.655" rx="32.3275" fill="#FF5E08"/>
</g>
<g clip-path="url(#clip0_101_499)">
<path d="M109.172 48.9121C108.934 48.6812 108.601 48.5763 108.275 48.63C107.948 48.6834 107.665 48.8886 107.514 49.183C106.992 50.196 106.33 51.1268 105.551 51.9497C105.629 51.3553 105.668 50.7573 105.668 50.1577C105.668 49.0072 105.514 47.8233 105.209 46.6384C104.209 42.7465 101.586 39.4552 98.0127 37.6084C97.7016 37.4476 97.331 37.4533 97.0249 37.6234C96.7189 37.7936 96.5184 38.1057 96.491 38.4547C96.2124 41.9915 94.3906 45.2092 91.49 47.2849C91.4516 47.3125 91.4135 47.3406 91.3754 47.3684C91.2965 47.4262 91.2221 47.4808 91.1525 47.5266C91.1417 47.5339 91.1309 47.5413 91.1203 47.5489C89.296 48.855 87.7907 50.5961 86.7671 52.5844C85.7269 54.6069 85.1995 56.7773 85.1995 59.035C85.1995 60.1851 85.3536 61.369 85.6578 62.5541C87.2626 68.8006 92.884 73.1633 99.3279 73.1633C107.118 73.1633 113.456 66.8253 113.456 59.035C113.456 55.1933 111.934 51.5982 109.172 48.9121Z" fill="white"/>
<circle cx="98.7872" cy="59.1109" r="4.32385" fill="#FF5E08"/>
</g>
<defs>
<filter id="filter0_d_101_499" x="0.115517" y="0.70517" width="198.424" height="198.424" filterUnits="userSpaceOnUse" color-interpolation-filters="sRGB">
<feFlood flood-opacity="0" result="BackgroundImageFix"/>
<feColorMatrix in="SourceAlpha" type="matrix" values="0 0 0 0 0 0 0 0 0 0 0 0 0 0 0 0 0 0 127 0" result="hardAlpha"/>
<feOffset dy="44.5897"/>
<feGaussianBlur stdDeviation="33.4422"/>
<feComposite in2="hardAlpha" operator="out"/>
<feColorMatrix type="matrix" values="0 0 0 0 1 0 0 0 0 0.368627 0 0 0 0 0.0313726 0 0 0 0.3 0"/>
<feBlend mode="normal" in2="BackgroundImageFix" result="effect1_dropShadow_101_499"/>
<feBlend mode="normal" in="SourceGraphic" in2="effect1_dropShadow_101_499" result="shape"/>
</filter>
<clipPath id="clip0_101_499">
<rect width="35.6717" height="35.6717" fill="white" transform="translate(81.4917 37.4917)"/>
</clipPath>
</defs>
</svg>
